# xmcd CD database file
#
# Track frame offsets:
#	150
#	18855
#	37554
#	54455
#	71265
#	85409
#	99557
#	118522
#	137457
#	158248
#	179030
#	197762
#	216488
#	231659
#	246782
#	265371
#	283849
#
# Disc length: 3803 seconds
#
# Revision: 1
# Processed by: cddbd v1.5.2PL0 Copyright (c) Steve Scherf et al.
# Submitted via: CDex 1.51
#
DISCID=f50ed911
DTITLE=Hal Leonard Jazz Play Along - Volume 1A - Maiden Voyage CD1/2
DYEAR=1900
DGENRE=Jazz
TTITLE0=All Blues (Split)
TTITLE1=All Blues (Stereo)
TTITLE2=Autumn Leaves (Split)
TTITLE3=Autumn Leaves (Stereo)
TTITLE4=Doxy (Split)
TTITLE5=Doxy (Stereo
TTITLE6=Footprints (Split)
TTITLE7=Footprints (Stereo)
TTITLE8=Freddie Freeloader (Split)
TTITLE9=Freddie Freeloader (Stereo)
TTITLE10=How Intensive (Split)
TTITLE11=How Intensive (Stereo)
TTITLE12=Impressions (Split)
TTITLE13=Impressions (Stereo)
TTITLE14=Little Sunflower (Split)
TTITLE15=Little Sunflower (Stereo)
TTITLE16=Bb Tuning Notes
EXTD=
EXTT0=
EXTT1=
EXTT2=
EXTT3=
EXTT4=
EXTT5=
EXTT6=
EXTT7=
EXTT8=
EXTT9=
EXTT10=
EXTT11=
EXTT12=
EXTT13=
EXTT14=
EXTT15=
EXTT16=
PLAYORDER=
